HIERARCHY
ROOT SpineBase
{
  OFFSET 0.000000 0.000000 0.000000
  CHANNELS 6 Xposition Yposition Zposition Zrotation Xrotation Yrotation
  JOINT SpineMid
  {
    OFFSET 0.000000 28.471068 0.000000
    CHANNELS 3 Zrotation Xrotation Yrotation
    JOINT SpineShoulder
    {
      OFFSET -0.129887 21.131480 -0.727053
      CHANNELS 3 Zrotation Xrotation Yrotation
      JOINT Neck
      {
        OFFSET -0.084429 6.991296 -0.542804
        CHANNELS 3 Zrotation Xrotation Yrotation
        JOINT Head
        {
          OFFSET -2.620468 13.163802 0.331450
          CHANNELS 3 Zrotation Xrotation Yrotation
          End Site
          {
            OFFSET 0 0 0
          }
        }
      }
      JOINT ShoulderLeft
      {
        OFFSET -13.452331 -4.515967 7.606761
        CHANNELS 3 Zrotation Xrotation Yrotation
        JOINT ElbowLeft
        {
          OFFSET -0.606331 -25.865178 3.889196
          CHANNELS 3 Zrotation Xrotation Yrotation
          JOINT WristLeft
          {
            OFFSET 0.109187 -26.240628 -0.922108
            CHANNELS 3 Zrotation Xrotation Yrotation
            JOINT HandLeft
            {
              OFFSET -0.209931 -2.804263 0.219686
              CHANNELS 3 Zrotation Xrotation Yrotation
              JOINT HandTipLeft
              {
                OFFSET 0.351395 -3.728810 -1.689584
                CHANNELS 3 Zrotation Xrotation Yrotation
                End Site
                {
                  OFFSET 0 0 0
                }
              }
              JOINT ThumbLeft
              {
                OFFSET 1.268234 -1.030947 -3.143674
                CHANNELS 3 Zrotation Xrotation Yrotation
                End Site
                {
                  OFFSET 0 0 0
                }
              }
            }
          }
        }
      }
      JOINT ShoulderRight
      {
        OFFSET 9.791760 -4.197939 -11.628234
        CHANNELS 3 Zrotation Xrotation Yrotation
        JOINT ElbowRight
        {
          OFFSET 6.087997 -22.642709 -2.592301
          CHANNELS 3 Zrotation Xrotation Yrotation
          JOINT WristRight
          {
            OFFSET -0.715516 -19.148780 -4.178494
            CHANNELS 3 Zrotation Xrotation Yrotation
            JOINT HandRight
            {
              OFFSET -1.824956 -7.000111 -1.649331
              CHANNELS 3 Zrotation Xrotation Yrotation
              JOINT HandTipRight
              {
                OFFSET -0.322359 -6.740325 0.565560
                CHANNELS 3 Zrotation Xrotation Yrotation
                End Site
                {
                  OFFSET 0 0 0
                }
              }
              JOINT ThumbRight
              {
                OFFSET 1.388797 -0.949639 -2.452240
                CHANNELS 3 Zrotation Xrotation Yrotation
                End Site
                {
                  OFFSET 0 0 0
                }
              }
            }
          }
        }
      }
    }
  }
  JOINT HipLeft
  {
    OFFSET -5.519113 -0.060425 0.733002
    CHANNELS 3 Zrotation Xrotation Yrotation
    JOINT KneeLeft
    {
      OFFSET 7.715504 -28.013126 7.095372
      CHANNELS 3 Zrotation Xrotation Yrotation
      JOINT AnkleLeft
      {
        OFFSET 5.842176 -30.277207 7.855479
        CHANNELS 3 Zrotation Xrotation Yrotation
        JOINT FootLeft
        {
          OFFSET -6.668938 -2.924965 -10.522596
          CHANNELS 3 Zrotation Xrotation Yrotation
          End Site
          {
            OFFSET 0 0 0
          }
        }
      }
    }
  }
  JOINT HipRight
  {
    OFFSET 4.847126 1.260285 -7.161035
    CHANNELS 3 Zrotation Xrotation Yrotation
    JOINT KneeRight
    {
      OFFSET 9.273124 -28.609858 3.379091
      CHANNELS 3 Zrotation Xrotation Yrotation
      JOINT AnkleRight
      {
        OFFSET 5.121120 -27.339956 9.198256
        CHANNELS 3 Zrotation Xrotation Yrotation
        JOINT FootRight
        {
          OFFSET -5.397965 -3.407680 -9.364073
          CHANNELS 3 Zrotation Xrotation Yrotation
          End Site
          {
            OFFSET 0 0 0
          }
        }
      }
    }
  }
}
MOTION
Frames: 5
Frame Time: 0.033333
36.014134 73.493206 353.217428 5.878981 -14.558505 12.545615 -0.166954 0.296960 -11.675628 -0.187442 0.275361 0.152170 -6.314184 21.811966 2.275115 0.000000 0.000000 0.000000 1.339964 -7.610250 1.525290 2.963966 -17.666616 -1.151712 -13.406314 33.567622 5.863931 -4.222689 -0.830760 1.948476 0.000000 0.000000 0.000000 0.000000 0.000000 0.000000 34.612190 -2.899310 -12.078968 -58.328066 3.244662 16.875794 -8.541767 -12.156540 2.980409 10.696527 0.667850 -10.749517 0.000000 0.000000 0.000000 0.000000 0.000000 0.000000 -16.400377 21.551968 -9.592402 15.720383 -2.821893 3.554623 7.568002 -12.605027 -12.527727 0.000000 0.000000 0.000000 -4.021324 32.548826 -5.871254 3.988659 -12.887319 -3.382789 3.044845 -7.325767 -6.301588 0.000000 0.000000 0.000000
35.276524 79.863834 351.528687 5.386363 -12.523946 12.915273 -0.168124 0.216965 -12.209393 -0.173599 0.169222 0.145634 -6.863588 20.502702 2.543595 0.000000 0.000000 0.000000 1.116274 -9.511225 1.542272 3.336201 -15.751200 -1.309365 -13.420098 35.854851 5.461880 -7.844283 -8.189978 2.969477 0.000000 0.000000 0.000000 0.000000 0.000000 0.000000 32.459098 -4.388459 -10.545036 -56.176150 4.382566 17.090164 -9.204817 -22.402405 3.188936 11.510644 1.093724 -13.934000 0.000000 0.000000 0.000000 0.000000 0.000000 0.000000 -13.323032 15.868123 -11.945934 10.467857 3.284811 3.275981 10.557640 -17.658473 -10.944253 0.000000 0.000000 0.000000 -4.205217 24.860494 -8.317289 3.310566 -4.811530 -1.743343 3.064804 -6.754159 -8.342488 0.000000 0.000000 0.000000
34.617305 85.572859 350.271014 4.962317 -10.859705 14.267322 -0.160179 0.212896 -13.686879 -0.162528 0.135192 0.137419 -8.135616 19.147021 2.931132 0.000000 0.000000 0.000000 0.652001 -11.385490 1.504323 3.414385 -13.740415 -1.428225 -15.193874 40.095467 6.080622 -9.241364 -18.081233 2.865773 0.000000 0.000000 0.000000 0.000000 0.000000 0.000000 29.932875 -7.131421 -9.183628 -52.475605 7.330296 17.819748 -12.562183 -29.810417 3.388142 17.360901 8.291949 -16.989234 0.000000 0.000000 0.000000 0.000000 0.000000 0.000000 -11.254100 12.469163 -14.283783 7.626045 6.257099 3.249878 9.936374 -16.327666 -11.192301 0.000000 0.000000 0.000000 -4.534487 19.441517 -11.105099 3.304643 -0.552633 -0.597450 3.482474 -8.201662 -6.706759 0.000000 0.000000 0.000000
34.094847 89.866077 349.591538 4.633379 -9.749280 15.178169 -0.108649 0.346784 -14.685215 -0.147753 0.249428 0.127583 -9.831729 17.814230 3.312198 0.000000 0.000000 0.000000 0.141479 -13.039893 1.430473 3.049612 -12.046583 -1.446823 -16.847546 43.500786 6.971574 -8.967111 -21.787027 3.157850 0.000000 0.000000 0.000000 0.000000 0.000000 0.000000 27.991261 -9.874529 -8.209432 -48.918487 10.260085 18.294179 -15.923956 -27.213105 3.524460 21.706878 9.626151 -16.948424 0.000000 0.000000 0.000000 0.000000 0.000000 0.000000 -10.419428 10.879560 -15.598038 7.098133 8.297070 3.565618 11.851641 -22.229492 -7.956523 0.000000 0.000000 0.000000 -5.271211 16.919591 -12.611375 4.305510 1.363138 0.175390 3.081807 -8.121140 -6.998189 0.000000 0.000000 0.000000
33.672053 92.973180 349.216021 4.324752 -8.945664 14.790680 -0.059633 0.428139 -14.364799 -0.138923 0.320126 0.119171 -11.049543 16.828516 3.540297 0.000000 0.000000 0.000000 -0.399942 -14.964412 1.350166 2.712033 -9.336001 -1.516259 -23.483884 45.168374 10.743361 -6.790131 -26.471427 4.066999 0.000000 0.000000 0.000000 0.000000 0.000000 0.000000 25.541996 -12.124719 -7.533738 -44.481886 13.033509 18.223691 -17.969835 -21.421731 3.871815 23.383886 10.005761 -14.859787 0.000000 0.000000 0.000000 0.000000 0.000000 0.000000 -10.029763 10.208561 -15.305173 7.438439 8.480555 3.637609 10.430617 -21.864561 -6.117829 0.000000 0.000000 0.000000 -5.966287 16.496087 -12.162920 5.694230 0.234251 0.307152 0.908949 -4.400642 -7.015202 0.000000 0.000000 0.000000
